<svg xmlns="http://www.w3.org/2000/svg" xmlns:svg="http://www.w3.org/2000/svg" id="svg163" width="16" height="16" version="1.1" viewBox="0 0 16 16" xml:space="preserve"><defs id="defs167"><linearGradient id="linearGradient4113"><stop style="stop-color:#2e3436;stop-opacity:1" id="stop4111" offset="0"/></linearGradient></defs><filter id="a" width="1" height="1" x="0" y="0"><feColorMatrix id="feColorMatrix2" in="SourceGraphic" type="matrix" values="0 0 0 0 1 0 0 0 0 1 0 0 0 0 1 0 0 0 1 0"/></filter><mask id="b"><g id="g7" filter="url(#a)"><path id="path5" fill-opacity=".3" d="m 0 0 h 16 v 16 h -16 z"/></g></mask><clipPath id="c"><path id="path10" d="m 0 0 h 1024 v 800 h -1024 z"/></clipPath><mask id="d"><g id="g15" filter="url(#a)"><path id="path13" fill-opacity=".05" d="m 0 0 h 16 v 16 h -16 z"/></g></mask><clipPath id="e"><path id="path18" d="m 0 0 h 1024 v 800 h -1024 z"/></clipPath><mask id="f"><g id="g23" filter="url(#a)"><path id="path21" fill-opacity=".05" d="m 0 0 h 16 v 16 h -16 z"/></g></mask><clipPath id="g"><path id="path26" d="m 0 0 h 1024 v 800 h -1024 z"/></clipPath><mask id="h"><g id="g31" filter="url(#a)"><path id="path29" fill-opacity=".05" d="m 0 0 h 16 v 16 h -16 z"/></g></mask><clipPath id="i"><path id="path34" d="m 0 0 h 1024 v 800 h -1024 z"/></clipPath><mask id="j"><g id="g39" filter="url(#a)"><path id="path37" fill-opacity=".05" d="m 0 0 h 16 v 16 h -16 z"/></g></mask><clipPath id="k"><path id="path42" d="m 0 0 h 1024 v 800 h -1024 z"/></clipPath><mask id="l"><g id="g47" filter="url(#a)"><path id="path45" fill-opacity=".05" d="m 0 0 h 16 v 16 h -16 z"/></g></mask><clipPath id="m"><path id="path50" d="m 0 0 h 1024 v 800 h -1024 z"/></clipPath><mask id="n"><g id="g55" filter="url(#a)"><path id="path53" fill-opacity=".05" d="m 0 0 h 16 v 16 h -16 z"/></g></mask><clipPath id="o"><path id="path58" d="m 0 0 h 1024 v 800 h -1024 z"/></clipPath><mask id="p"><g id="g63" filter="url(#a)"><path id="path61" fill-opacity=".3" d="m 0 0 h 16 v 16 h -16 z"/></g></mask><clipPath id="q"><path id="path66" d="m 0 0 h 1024 v 800 h -1024 z"/></clipPath><mask id="r"><g id="g71" filter="url(#a)"><path id="path69" fill-opacity=".5" d="m 0 0 h 16 v 16 h -16 z"/></g></mask><clipPath id="s"><path id="path74" d="m 0 0 h 1024 v 800 h -1024 z"/></clipPath><mask id="t"><g id="g79" filter="url(#a)"><path id="path77" fill-opacity=".4" d="m 0 0 h 16 v 16 h -16 z"/></g></mask><clipPath id="u"><path id="path82" d="m 0 0 h 1024 v 800 h -1024 z"/></clipPath><mask id="v"><g id="g87" filter="url(#a)"><path id="path85" fill-opacity=".4" d="m 0 0 h 16 v 16 h -16 z"/></g></mask><clipPath id="w"><path id="path90" d="m 0 0 h 1024 v 800 h -1024 z"/></clipPath><mask id="x"><g id="g95" filter="url(#a)"><path id="path93" fill-opacity=".5" d="m 0 0 h 16 v 16 h -16 z"/></g></mask><clipPath id="y"><path id="path98" d="m 0 0 h 1024 v 800 h -1024 z"/></clipPath><mask id="z"><g id="g103" filter="url(#a)"><path id="path101" fill-opacity=".5" d="m 0 0 h 16 v 16 h -16 z"/></g></mask><clipPath id="A"><path id="path106" d="m 0 0 h 1024 v 800 h -1024 z"/></clipPath><g id="g113" clip-path="url(#c)" mask="url(#b)" transform="matrix(1 0 0 1 -560 -500)"><path id="path111" fill="#2e3436" d="m 562.460938 212.058594 h 10.449218 c -1.183594 0.492187 -1.296875 2.460937 0 3 h -10.449218 z m 0 0"/></g><g id="g117" clip-path="url(#e)" mask="url(#d)" transform="matrix(1 0 0 1 -560 -500)"><path id="path115" fill="#2e3436" fill-rule="evenodd" d="m 16 632 h 1 v 1 h -1 z m 0 0"/></g><g id="g121" clip-path="url(#g)" mask="url(#f)" transform="matrix(1 0 0 1 -560 -500)"><path id="path119" fill="#2e3436" fill-rule="evenodd" d="m 17 631 h 1 v 1 h -1 z m 0 0"/></g><g id="g125" clip-path="url(#i)" mask="url(#h)" transform="matrix(1 0 0 1 -560 -500)"><path id="path123" fill="#2e3436" fill-rule="evenodd" d="m 18 634 h 1 v 1 h -1 z m 0 0"/></g><g id="g129" clip-path="url(#k)" mask="url(#j)" transform="matrix(1 0 0 1 -560 -500)"><path id="path127" fill="#2e3436" fill-rule="evenodd" d="m 16 634 h 1 v 1 h -1 z m 0 0"/></g><g id="g133" clip-path="url(#m)" mask="url(#l)" transform="matrix(1 0 0 1 -560 -500)"><path id="path131" fill="#2e3436" fill-rule="evenodd" d="m 17 635 h 1 v 1 h -1 z m 0 0"/></g><g id="g137" clip-path="url(#o)" mask="url(#n)" transform="matrix(1 0 0 1 -560 -500)"><path id="path135" fill="#2e3436" fill-rule="evenodd" d="m 19 635 h 1 v 1 h -1 z m 0 0"/></g><g id="g141" clip-path="url(#q)" mask="url(#p)" transform="matrix(1 0 0 1 -560 -500)"><path id="path139" fill="#2e3436" d="m 136 660 v 7 h 7 v -7 z m 0 0"/></g><g id="g145" clip-path="url(#s)" mask="url(#r)" transform="matrix(1 0 0 1 -560 -500)"><path id="path143" fill="#2e3436" d="m 199 642 h 3 v 12 h -3 z m 0 0"/></g><g id="g149" clip-path="url(#u)" mask="url(#t)" transform="matrix(1 0 0 1 -560 -500)"><path id="path147" fill="#2e3436" d="m 209.5 144.160156 c 0.277344 0 0.5 0.222656 0.5 0.5 v 1 c 0 0.277344 -0.222656 0.5 -0.5 0.5 s -0.5 -0.222656 -0.5 -0.5 v -1 c 0 -0.277344 0.222656 -0.5 0.5 -0.5 z m 0 0"/></g><g id="g153" clip-path="url(#w)" mask="url(#v)" transform="matrix(1 0 0 1 -560 -500)"><path id="path151" fill="#2e3436" d="m 206.5 144.160156 c 0.277344 0 0.5 0.222656 0.5 0.5 v 1 c 0 0.277344 -0.222656 0.5 -0.5 0.5 s -0.5 -0.222656 -0.5 -0.5 v -1 c 0 -0.277344 0.222656 -0.5 0.5 -0.5 z m 0 0"/></g><g id="g157" clip-path="url(#y)" mask="url(#x)" transform="matrix(1 0 0 1 -560 -500)"><path id="path155" fill="#2e3436" d="m 229.5 143.160156 c -0.546875 0 -1 0.457032 -1 1 c 0 0.546875 0.453125 1 1 1 s 1 -0.453125 1 -1 c 0 -0.542968 -0.453125 -1 -1 -1 z m 0 0"/></g><g id="g161" clip-path="url(#A)" mask="url(#z)" transform="matrix(1 0 0 1 -560 -500)"><path id="path159" fill="#2e3436" d="m 226.453125 143.160156 c -0.519531 0 -0.953125 0.433594 -0.953125 0.953125 v 0.09375 c 0 0.519531 0.433594 0.953125 0.953125 0.953125 h 0.09375 c 0.519531 0 0.953125 -0.433594 0.953125 -0.953125 v -0.09375 c 0 -0.519531 -0.433594 -0.953125 -0.953125 -0.953125 z m 0 0"/></g><g id="g2985"><g id="g7289" transform="translate(-13.15918,-2.7236329)"><path style="color:#000;fill:#2e3436;-inkscape-stroke:none" id="rect5646" d="m 18.955078,8.5917969 v 0.1503906 4.1132815 h 4.408203 V 8.5917969 Z m 0.300781,0.3007812 h 3.808594 v 3.6621099 h -3.808594 z"/><path id="path6823" d="m 21.664456,9.4348009 c -0.0448,0.0028 -0.08868,0.02834 -0.132566,0.07131 l -2.010434,1.9738661 0.543064,0.533007 h 1.315605 l 1.361318,-1.336633 c 0.0768,-0.07497 0.07131,-0.187422 0.0018,-0.255075 L 21.807968,9.5024539 c -0.0512,-0.04937 -0.09783,-0.0704 -0.143538,-0.06765 z m -0.927049,1.3174341 0.64729,0.601576 c 0.04937,0.02925 0.04662,0.13531 0.0082,0.174622 L 21.159763,11.77528 H 20.16506 l -0.29896,-0.294388 0.717686,-0.720429 c 0.04389,-0.04389 0.117024,-0.0448 0.153593,-0.0082 z m 0,0" style="fill:#2e3436;stroke-width:.234048"/></g><path style="color:#000;fill:#2e3436;-inkscape-stroke:none" id="path519" d="m 11.921875,8 -0.02734,0.7988281 c 0.45613,0.014793 0.789819,0.090664 0.996094,0.203125 0.206275,0.1124614 0.307806,0.2384354 0.373047,0.4882813 0.130481,0.4996918 -0.04446,1.5452146 -0.671875,3.1640626 l 0.746094,0.289062 C 13.984968,11.27379 14.264084,10.150806 14.039063,9.2890625 13.926552,8.8581909 13.648525,8.5052795 13.273438,8.3007813 12.89835,8.096283 12.448127,8.0170672 11.921875,8 Z"/><path style="color:#000;fill:#2e3436;-inkscape-stroke:none" id="path2966" d="M 3.4296875,2.5273438 C 2.3530167,3.2531139 1.4783501,4.6175066 1.3378906,5.9433594 1.2676609,6.6062857 1.4025928,7.2855024 1.859375,7.7988281 2.3161572,8.3121538 3.0575081,8.6201985 4.0722656,8.6621094 L 4.1054687,7.8613281 C 3.2320777,7.8252559 2.7350999,7.5800679 2.4570313,7.2675781 2.1789626,6.9550884 2.0810775,6.5341276 2.1347656,6.0273437 2.2421419,5.0137761 3.0378868,3.7570102 3.8769531,3.1914063 Z"/></g></svg>