<svg xmlns="http://www.w3.org/2000/svg" xmlns:svg="http://www.w3.org/2000/svg" id="svg163" width="16" height="16" version="1.1" viewBox="0 0 16 16" xml:space="preserve"><defs id="defs167"><clipPath id="clipPath2873" clipPathUnits="userSpaceOnUse"><circle style="display:none;fill:none;stroke:#444;stroke-width:.0430271;stroke-dasharray:none;stroke-opacity:1" id="circle2875" cx=".529" cy="3.44" r=".114" d="M 0.64300952,3.4395833 A 0.11384288,0.11384288 0 0 1 0.52916664,3.5534262 0.11384288,0.11384288 0 0 1 0.41532376,3.4395833 0.11384288,0.11384288 0 0 1 0.52916664,3.3257404 0.11384288,0.11384288 0 0 1 0.64300952,3.4395833 Z"/><path id="lpe_path-effect2877" d="M -4.4708333,-3.9659488 H 6.7812597 V 8.4895833 H -4.4708333 Z M 1.4367595,1.0583333 A 0.11384288,0.11384288 0 0 0 1.3229166,0.9444904 0.11384288,0.11384288 0 0 0 1.2090737,1.0583333 0.11384288,0.11384288 0 0 0 1.3229166,1.1721762 0.11384288,0.11384288 0 0 0 1.4367595,1.0583333 Z" class="powerclip" style="fill:none;stroke:#444;stroke-width:.0430271;stroke-dasharray:none;stroke-opacity:1"/></clipPath><clipPath id="clipPath2945" clipPathUnits="userSpaceOnUse"/><clipPath id="clipPath2989" clipPathUnits="userSpaceOnUse"><path id="lpe_path-effect2993" d="M -4.4707031,-3.9667969 H 6.7813388 V 8.4902344 H -4.4707031 Z M 0.64300952,3.4395833 A 0.11384288,0.11384288 0 0 0 0.52916664,3.3257404 0.11384288,0.11384288 0 0 0 0.41532376,3.4395833 0.11384288,0.11384288 0 0 0 0.52916664,3.5534262 0.11384288,0.11384288 0 0 0 0.64300952,3.4395833 Z" class="powerclip" style="fill:none;stroke:#444;stroke-width:.0430271;stroke-dasharray:none;stroke-opacity:1"/></clipPath><clipPath id="clipPath3029" clipPathUnits="userSpaceOnUse"><path id="lpe_path-effect3033" d="M -4.4707031,-3.9667969 H 6.7813388 V 8.4902344 H -4.4707031 Z M 1.4367595,1.0583333 A 0.11384288,0.11384288 0 0 0 1.3229166,0.9444904 0.11384288,0.11384288 0 0 0 1.2090737,1.0583333 0.11384288,0.11384288 0 0 0 1.3229166,1.1721762 0.11384288,0.11384288 0 0 0 1.4367595,1.0583333 Z" class="powerclip" style="fill:none;stroke:#444;stroke-width:.0430271;stroke-dasharray:none;stroke-opacity:1"/></clipPath><clipPath id="clipPath3176-6" clipPathUnits="userSpaceOnUse"><path id="lpe_path-effect3180-2" d="M -4.4707031,-3.9667969 H 6.7813388 V 8.4902344 H -4.4707031 Z m 5.11384286,7.40625 A 0.11384288,0.11384288 0 0 0 0.52929687,3.3256102 0.11384288,0.11384288 0 0 0 0.41545399,3.4394531 0.11384288,0.11384288 0 0 0 0.52929687,3.553296 0.11384288,0.11384288 0 0 0 0.64313976,3.4394531 Z" class="powerclip" style="fill:none;stroke:#444;stroke-width:.0430271;stroke-dasharray:none;stroke-opacity:1"/></clipPath></defs><filter id="a" width="1" height="1" x="0" y="0"><feColorMatrix id="feColorMatrix2" in="SourceGraphic" type="matrix" values="0 0 0 0 1 0 0 0 0 1 0 0 0 0 1 0 0 0 1 0"/></filter><mask id="b"><g id="g7" filter="url(#a)"><path id="path5" fill-opacity=".3" d="m 0 0 h 16 v 16 h -16 z"/></g></mask><clipPath id="c"><path id="path10" d="m 0 0 h 1024 v 800 h -1024 z"/></clipPath><mask id="d"><g id="g15" filter="url(#a)"><path id="path13" fill-opacity=".05" d="m 0 0 h 16 v 16 h -16 z"/></g></mask><clipPath id="e"><path id="path18" d="m 0 0 h 1024 v 800 h -1024 z"/></clipPath><mask id="f"><g id="g23" filter="url(#a)"><path id="path21" fill-opacity=".05" d="m 0 0 h 16 v 16 h -16 z"/></g></mask><clipPath id="g"><path id="path26" d="m 0 0 h 1024 v 800 h -1024 z"/></clipPath><mask id="h"><g id="g31" filter="url(#a)"><path id="path29" fill-opacity=".05" d="m 0 0 h 16 v 16 h -16 z"/></g></mask><clipPath id="i"><path id="path34" d="m 0 0 h 1024 v 800 h -1024 z"/></clipPath><mask id="j"><g id="g39" filter="url(#a)"><path id="path37" fill-opacity=".05" d="m 0 0 h 16 v 16 h -16 z"/></g></mask><clipPath id="k"><path id="path42" d="m 0 0 h 1024 v 800 h -1024 z"/></clipPath><mask id="l"><g id="g47" filter="url(#a)"><path id="path45" fill-opacity=".05" d="m 0 0 h 16 v 16 h -16 z"/></g></mask><clipPath id="m"><path id="path50" d="m 0 0 h 1024 v 800 h -1024 z"/></clipPath><mask id="n"><g id="g55" filter="url(#a)"><path id="path53" fill-opacity=".05" d="m 0 0 h 16 v 16 h -16 z"/></g></mask><clipPath id="o"><path id="path58" d="m 0 0 h 1024 v 800 h -1024 z"/></clipPath><mask id="p"><g id="g63" filter="url(#a)"><path id="path61" fill-opacity=".3" d="m 0 0 h 16 v 16 h -16 z"/></g></mask><clipPath id="q"><path id="path66" d="m 0 0 h 1024 v 800 h -1024 z"/></clipPath><mask id="r"><g id="g71" filter="url(#a)"><path id="path69" fill-opacity=".5" d="m 0 0 h 16 v 16 h -16 z"/></g></mask><clipPath id="s"><path id="path74" d="m 0 0 h 1024 v 800 h -1024 z"/></clipPath><mask id="t"><g id="g79" filter="url(#a)"><path id="path77" fill-opacity=".4" d="m 0 0 h 16 v 16 h -16 z"/></g></mask><clipPath id="u"><path id="path82" d="m 0 0 h 1024 v 800 h -1024 z"/></clipPath><mask id="v"><g id="g87" filter="url(#a)"><path id="path85" fill-opacity=".4" d="m 0 0 h 16 v 16 h -16 z"/></g></mask><clipPath id="w"><path id="path90" d="m 0 0 h 1024 v 800 h -1024 z"/></clipPath><mask id="x"><g id="g95" filter="url(#a)"><path id="path93" fill-opacity=".5" d="m 0 0 h 16 v 16 h -16 z"/></g></mask><clipPath id="y"><path id="path98" d="m 0 0 h 1024 v 800 h -1024 z"/></clipPath><mask id="z"><g id="g103" filter="url(#a)"><path id="path101" fill-opacity=".5" d="m 0 0 h 16 v 16 h -16 z"/></g></mask><clipPath id="A"><path id="path106" d="m 0 0 h 1024 v 800 h -1024 z"/></clipPath><g id="g113" clip-path="url(#c)" mask="url(#b)" transform="matrix(1 0 0 1 -560 -480)"><path id="path1710" fill="#2e3436" d="m 562.460938 212.058594 h 10.449218 c -1.183594 0.492187 -1.296875 2.460937 0 3 h -10.449218 z m 0 0"/></g><g id="g117" clip-path="url(#e)" mask="url(#d)" transform="matrix(1 0 0 1 -560 -480)"><path id="path1713" fill="#2e3436" fill-rule="evenodd" d="m 16 632 h 1 v 1 h -1 z m 0 0"/></g><g id="g121" clip-path="url(#g)" mask="url(#f)" transform="matrix(1 0 0 1 -560 -480)"><path id="path1716" fill="#2e3436" fill-rule="evenodd" d="m 17 631 h 1 v 1 h -1 z m 0 0"/></g><g id="g125" clip-path="url(#i)" mask="url(#h)" transform="matrix(1 0 0 1 -560 -480)"><path id="path1719" fill="#2e3436" fill-rule="evenodd" d="m 18 634 h 1 v 1 h -1 z m 0 0"/></g><g id="g129" clip-path="url(#k)" mask="url(#j)" transform="matrix(1 0 0 1 -560 -480)"><path id="path1722" fill="#2e3436" fill-rule="evenodd" d="m 16 634 h 1 v 1 h -1 z m 0 0"/></g><g id="g133" clip-path="url(#m)" mask="url(#l)" transform="matrix(1 0 0 1 -560 -480)"><path id="path1725" fill="#2e3436" fill-rule="evenodd" d="m 17 635 h 1 v 1 h -1 z m 0 0"/></g><g id="g137" clip-path="url(#o)" mask="url(#n)" transform="matrix(1 0 0 1 -560 -480)"><path id="path1728" fill="#2e3436" fill-rule="evenodd" d="m 19 635 h 1 v 1 h -1 z m 0 0"/></g><g id="g141" clip-path="url(#q)" mask="url(#p)" transform="matrix(1 0 0 1 -560 -480)"><path id="path1731" fill="#2e3436" d="m 136 660 v 7 h 7 v -7 z m 0 0"/></g><g id="g145" clip-path="url(#s)" mask="url(#r)" transform="matrix(1 0 0 1 -560 -480)"><path id="path1734" fill="#2e3436" d="m 199 642 h 3 v 12 h -3 z m 0 0"/></g><g id="g149" clip-path="url(#u)" mask="url(#t)" transform="matrix(1 0 0 1 -560 -480)"><path id="path1737" fill="#2e3436" d="m 209.5 144.160156 c 0.277344 0 0.5 0.222656 0.5 0.5 v 1 c 0 0.277344 -0.222656 0.5 -0.5 0.5 s -0.5 -0.222656 -0.5 -0.5 v -1 c 0 -0.277344 0.222656 -0.5 0.5 -0.5 z m 0 0"/></g><g id="g153" clip-path="url(#w)" mask="url(#v)" transform="matrix(1 0 0 1 -560 -480)"><path id="path1740" fill="#2e3436" d="m 206.5 144.160156 c 0.277344 0 0.5 0.222656 0.5 0.5 v 1 c 0 0.277344 -0.222656 0.5 -0.5 0.5 s -0.5 -0.222656 -0.5 -0.5 v -1 c 0 -0.277344 0.222656 -0.5 0.5 -0.5 z m 0 0"/></g><g id="g157" clip-path="url(#y)" mask="url(#x)" transform="matrix(1 0 0 1 -560 -480)"><path id="path1743" fill="#2e3436" d="m 229.5 143.160156 c -0.546875 0 -1 0.457032 -1 1 c 0 0.546875 0.453125 1 1 1 s 1 -0.453125 1 -1 c 0 -0.542968 -0.453125 -1 -1 -1 z m 0 0"/></g><g id="g161" clip-path="url(#A)" mask="url(#z)" transform="matrix(1 0 0 1 -560 -480)"><path id="path1746" fill="#2e3436" d="m 226.453125 143.160156 c -0.519531 0 -0.953125 0.433594 -0.953125 0.953125 v 0.09375 c 0 0.519531 0.433594 0.953125 0.953125 0.953125 h 0.09375 c 0.519531 0 0.953125 -0.433594 0.953125 -0.953125 v -0.09375 c 0 -0.519531 -0.433594 -0.953125 -0.953125 -0.953125 z m 0 0"/></g><path style="color:#000;fill:#2e3436;-inkscape-stroke:none" id="path1749" d="M 8.908833,4.3758905 C 7.2580692,3.9619216 5.6662903,3.9613794 4.3959147,4.31339 3.125539,4.6654008 2.1394059,5.3944296 1.871409,6.4631079 1.6034121,7.5317861 2.1288435,8.6398758 3.0827863,9.5496888 4.0367294,10.459501 5.4404032,11.210141 7.091167,11.62411 c 1.6507639,0.413968 3.242542,0.414511 4.512918,0.0625 1.270376,-0.352011 2.256509,-1.08104 2.524506,-2.1497179 C 14.396588,8.4682139 13.871157,7.3601239 12.917214,6.4503115 11.96327,5.5404991 10.559597,4.7898594 8.908833,4.3758905 Z M 8.7382783,5.056003 c 1.5466547,0.387861 2.8520547,1.0969714 3.6953897,1.9012917 0.843334,0.8043203 1.203575,1.6643481 1.016705,2.409518 -0.186869,0.7451703 -0.910305,1.3334393 -2.033382,1.6446353 -1.123077,0.311195 -2.6086145,0.32041 -4.1552693,-0.06745 C 5.7150669,10.556136 4.4096665,9.8470255 3.5663322,9.0427056 2.7229981,8.2383851 2.3627578,7.3783574 2.5496271,6.6331874 2.7364965,5.8880175 3.4599323,5.2997478 4.583009,4.9885524 5.7060856,4.6773572 7.1916235,4.6681419 8.7382783,5.056003 Z"/><path style="color:#000;fill:#2e3436" id="path1752" d="M 10.127043,9.0482224 5.0789415,10.237537 5.021316,8.0584641 4.7214569,8.0658248 4.7882789,10.625762 10.204993,9.3396063 Z"/><path id="path1755" d="M 5.698414,10.392071 A 0.80289094,0.80289094 0 0 1 4.895523,11.194962 0.80289094,0.80289094 0 0 1 4.092632,10.392071 0.80289094,0.80289094 0 0 1 4.895523,9.5891802 0.80289094,0.80289094 0 0 1 5.698414,10.392071 Z" style="fill:#2e3436;stroke-width:.39422;fill-opacity:1"/><path style="color:#000;fill:#2e3436;stroke-width:3.77953;fill-opacity:1" id="path1758" d="m 4.8918321,6.2466599 c -0.54995,0 -0.9965552,0.4466048 -0.9965552,0.9965548 0,0.54995 0.4466052,1.003937 0.9965552,1.003937 0.54995,0 1.003937,-0.453987 1.003937,-1.003937 0,-0.54995 -0.453987,-0.9965548 -1.003937,-0.9965548 z m 0,0.39124 c 0.3369,0 0.605315,0.2684183 0.605315,0.6053148 0,0.3368996 -0.268418,0.6053152 -0.605315,0.6053152 -0.336899,0 -0.605314,-0.2684183 -0.605314,-0.6053152 0,-0.3368995 0.268418,-0.6053148 0.605314,-0.6053148 z"/><path style="color:#000;fill:#2e3436;fill-opacity:1;stroke-width:3.77953" id="path1761" d="m 10.912622,7.9425996 c -0.54995,0 -0.9965547,0.4466048 -0.9965547,0.9965548 0,0.54995 0.4466047,1.003937 0.9965547,1.003937 0.54995,0 1.003937,-0.453987 1.003937,-1.003937 0,-0.54995 -0.453987,-0.9965548 -1.003937,-0.9965548 z m 0,0.39124 c 0.3369,0 0.605315,0.2684183 0.605315,0.6053148 0,0.3368996 -0.268418,0.6053152 -0.605315,0.6053152 -0.336899,0 -0.605314,-0.2684183 -0.605314,-0.6053152 0,-0.3368995 0.268418,-0.6053148 0.605314,-0.6053148 z"/></svg>